<svg xmlns="http://www.w3.org/2000/svg" viewBox="0 0 800 800">
<defs>
<filter id="g"><feGaussianBlur stdDeviation="4" result="b"/><feMerge><feMergeNode in="b"/><feMergeNode in="SourceGraphic"/></feMerge></filter>
</defs>
<polygon points="400.0,344.0 436.0,357.1 455.1,390.3 448.5,428.0 419.2,452.6 380.8,452.6 351.5,428.0 344.9,390.3 364.0,357.1" fill="none" stroke="#6b7280" stroke-opacity="0.19" stroke-width="1.2"/>
<polygon points="400.0,288.0 472.0,314.2 510.3,380.6 497.0,456.0 438.3,505.2 361.7,505.2 303.0,456.0 289.7,380.6 328.0,314.2" fill="none" stroke="#6b7280" stroke-opacity="0.23" stroke-width="1.2"/>
<polygon points="400.0,232.0 508.0,271.3 565.4,370.8 545.5,484.0 457.5,557.9 342.5,557.9 254.5,484.0 234.6,370.8 292.0,271.3" fill="none" stroke="#6b7280" stroke-opacity="0.27" stroke-width="1.2"/>
<polygon points="400.0,176.0 544.0,228.4 620.6,361.1 594.0,512.0 476.6,610.5 323.4,610.5 206.0,512.0 179.4,361.1 256.0,228.4" fill="none" stroke="#6b7280" stroke-opacity="0.31" stroke-width="1.2"/>
<polygon points="400.0,120.0 580.0,185.5 675.7,351.4 642.5,540.0 495.8,663.1 304.2,663.1 157.5,540.0 124.3,351.4 220.0,185.5" fill="none" stroke="#6b7280" stroke-opacity="0.35" stroke-width="1.2"/>
<line x1="400" y1="400" x2="400.0" y2="120.0" stroke="#6b7280" stroke-opacity=".45"/>
<line x1="400" y1="400" x2="580.0" y2="185.5" stroke="#6b7280" stroke-opacity=".45"/>
<line x1="400" y1="400" x2="675.7" y2="351.4" stroke="#6b7280" stroke-opacity=".45"/>
<line x1="400" y1="400" x2="642.5" y2="540.0" stroke="#6b7280" stroke-opacity=".45"/>
<line x1="400" y1="400" x2="495.8" y2="663.1" stroke="#6b7280" stroke-opacity=".45"/>
<line x1="400" y1="400" x2="304.2" y2="663.1" stroke="#6b7280" stroke-opacity=".45"/>
<line x1="400" y1="400" x2="157.5" y2="540.0" stroke="#6b7280" stroke-opacity=".45"/>
<line x1="400" y1="400" x2="124.3" y2="351.4" stroke="#6b7280" stroke-opacity=".45"/>
<line x1="400" y1="400" x2="220.0" y2="185.5" stroke="#6b7280" stroke-opacity=".45"/>
<polygon points="400.0,131.2 565.6,202.7 648.2,356.2 574.6,500.8 474.7,605.2 315.7,631.5 201.2,514.8 195.9,364.0 256.0,228.4" fill="#6e56a1" fill-opacity=".18" stroke="#6e56a1" stroke-width="3" filter="url(#g)"/>
<text x="400.0" y="78.0" fill="#d1d5db" font-size="20" font-family="Segoe UI,Arial" text-anchor="middle">HTML</text>
<text x="607.0" y="153.3" fill="#d1d5db" font-size="20" font-family="Segoe UI,Arial" text-anchor="start">CSS</text>
<text x="717.1" y="344.1" fill="#d1d5db" font-size="20" font-family="Segoe UI,Arial" text-anchor="start">JS</text>
<text x="678.9" y="561.0" fill="#d1d5db" font-size="20" font-family="Segoe UI,Arial" text-anchor="start">Vue</text>
<text x="510.1" y="702.6" fill="#d1d5db" font-size="20" font-family="Segoe UI,Arial" text-anchor="start">TypeScript</text>
<text x="289.9" y="702.6" fill="#d1d5db" font-size="20" font-family="Segoe UI,Arial" text-anchor="end">JSON</text>
<text x="121.1" y="561.0" fill="#d1d5db" font-size="20" font-family="Segoe UI,Arial" text-anchor="end">PHP</text>
<text x="82.9" y="344.1" fill="#d1d5db" font-size="20" font-family="Segoe UI,Arial" text-anchor="end">React</text>
<text x="193.0" y="153.3" fill="#d1d5db" font-size="20" font-family="Segoe UI,Arial" text-anchor="end">Python</text>
</svg>